<?xml version="1.0" encoding="UTF-8" standalone="no"?>
<!DOCTYPE svg PUBLIC "-//W3C//DTD SVG 1.1//EN" "http://www.w3.org/Graphics/SVG/1.1/DTD/svg11.dtd">
<svg version="1.1" xmlns="http://www.w3.org/2000/svg" xmlns:xlink="http://www.w3.org/1999/xlink" preserveAspectRatio="xMidYMid meet" viewBox="0 0 1915 150" width="1915" height="150"><defs><path d="M1211.51 506.09C860.02 582.82 896.47 450.21 564.92 514.19C340.77 557.45 300.35 457.37 -12.95 519.65C-12.95 525.58 -12.95 555.19 -12.95 608.51L1895.93 608.51C1895.93 545.83 1895.93 511.01 1895.93 504.04C1869.45 504.1 1843.04 506.5 1816.99 511.22C1461.78 573.31 1438.11 456.63 1211.51 506.09Z" id="b1UPmSlQd"></path><path d="M1915.91 149.99C1915.91 97.97 1915.91 69.07 1915.91 63.3C1655 -7.66 1625.21 98.85 1444.51 54.03C1182.13 -11.09 1211.01 123.88 932.83 45.78C753.5 -4.54 734.77 114.18 453.67 51C313.65 19.54 293.73 103.48 79.6 46.17C53.67 39.16 26.58 37.54 0 41.43C0 48.67 0 84.86 0 150L1915.91 149.99Z" id="i3ODWc8fnI"></path></defs><g><g><g><use xlink:href="#b1UPmSlQd" opacity="1" fill="#b99652" fill-opacity="1"></use><g><use xlink:href="#b1UPmSlQd" opacity="1" fill-opacity="0" stroke="#000000" stroke-width="1" stroke-opacity="0"></use></g></g><g><use xlink:href="#i3ODWc8fnI" opacity="1" fill="#b99652" fill-opacity="1"></use><g><use xlink:href="#i3ODWc8fnI" opacity="1" fill-opacity="0" stroke="#000000" stroke-width="1" stroke-opacity="0"></use></g></g></g></g></svg>